<svg width="26" height="29" viewBox="0 0 26 29" fill="none" xmlns="http://www.w3.org/2000/svg">
<path d="M0.5 2.33329C0.5 1.32079 1.32079 0.5 2.33329 0.5H20.9996C22.0121 0.5 22.8329 1.3208 22.8329 2.33329V9.26495C22.8329 9.54107 22.609 9.76493 22.3329 9.76493C22.0568 9.76493 21.8329 9.54107 21.8329 9.26495V2.33329C21.8329 1.87307 21.4599 1.49996 20.9996 1.49996H2.33329C1.87305 1.49996 1.49996 1.87305 1.49996 2.33329V26.3328C1.49996 26.7931 1.87307 27.1661 2.33329 27.1661H8.99982C9.27593 27.1661 9.4998 27.39 9.4998 27.6661C9.4998 27.9422 9.27594 28.1661 8.99982 28.1661H2.33329C1.3208 28.1661 0.5 27.3453 0.5 26.3328V2.33329Z" fill="white" stroke="white"/>
<path d="M5.83264 7.66648C5.83264 7.39036 6.0565 7.1665 6.33262 7.1665H14.9991C15.2752 7.1665 15.4991 7.39036 15.4991 7.66648C15.4991 7.94261 15.2752 8.16646 14.9991 8.16646H6.33262C6.0565 8.16646 5.83264 7.94261 5.83264 7.66648Z" fill="white" stroke="white"/>
<path d="M5.83264 12.3331C5.83264 12.057 6.0565 11.8331 6.33262 11.8331H9.66589C9.942 11.8331 10.1659 12.057 10.1659 12.3331C10.1659 12.6092 9.942 12.8331 9.66589 12.8331H6.33262C6.0565 12.8331 5.83264 12.6092 5.83264 12.3331Z" fill="white" stroke="white"/>
<path d="M24.5002 20.9996C24.5002 17.5939 21.7393 14.833 18.3336 14.833C14.9279 14.833 12.1671 17.5939 12.1671 20.9996C12.1671 24.4053 14.9279 27.1661 18.3336 27.1661C21.7393 27.1661 24.5002 24.4053 24.5002 20.9996ZM18.3336 13.8331C22.2915 13.8331 25.5001 17.0417 25.5001 20.9996C25.5001 24.9575 22.2915 28.1661 18.3336 28.1661C14.3757 28.1661 11.1671 24.9575 11.1671 20.9996C11.1671 17.0417 14.3757 13.8331 18.3336 13.8331Z" fill="white" stroke="white"/>
<path d="M18.3329 21.8328C18.609 21.8328 18.8328 22.0567 18.8328 22.3328V24.3328C18.8328 24.6089 18.609 24.8327 18.3329 24.8327C18.0568 24.8327 17.8329 24.6089 17.8329 24.3328V22.3328C17.8329 22.0567 18.0568 21.8328 18.3329 21.8328Z" fill="white" stroke="white"/>
<path d="M19.166 18.3329C19.166 18.7931 18.7929 19.1662 18.3327 19.1662C17.8725 19.1662 17.4994 18.7931 17.4994 18.3329C17.4994 17.8726 17.8725 17.4996 18.3327 17.4996C18.7929 17.4996 19.166 17.8726 19.166 18.3329Z" fill="white" stroke="white"/>
</svg>
