<svg width="25" height="29" viewBox="0 0 25 29" fill="none" xmlns="http://www.w3.org/2000/svg">
<mask id="path-1-inside-1_1_169" fill="white">
<path d="M12.2783 2.15683C15.5651 3.24533 18.9386 4.527 21.8234 5.64573C22.0238 6.95875 22.2987 9.21077 22.3514 11.9331C22.3978 15.034 22.1414 16.7446 22.0277 17.3409C21.7898 18.1623 21.2903 19.0548 20.5434 19.9933C19.6576 21.1053 18.4515 22.2615 16.9587 23.429C16.9576 23.4295 16.9565 23.4306 16.9559 23.4312C14.8344 25.0964 12.8702 26.1698 12.2783 26.4789C11.6865 26.1704 9.72449 25.0992 7.60405 23.4351L7.60125 23.4329C6.10905 22.266 4.90353 21.1103 4.01941 19.9989C3.30998 19.1069 2.82397 18.2558 2.57312 17.4691C2.5664 17.4428 2.55912 17.4165 2.55073 17.3896C2.43874 17.0105 2.07871 15.4836 2.13302 11.7254C2.19237 9.33116 2.41186 7.19224 2.75454 5.63117C5.63032 4.51748 8.99379 3.24141 12.2783 2.15627M12.2783 0C12.1098 0 11.9407 0.0268764 11.7766 0.0811892C8.55649 1.13945 5.25349 2.3808 1.89449 3.68207C1.44263 3.85733 1.06356 4.18152 0.817197 4.57571C0.836235 4.57795 0.126809 6.79245 0.00586539 11.6834C-0.065805 16.5749 0.543394 18.0402 0.523237 18.0419C0.853033 19.117 1.47007 20.2105 2.35419 21.3225C3.34246 22.5644 4.67788 23.8472 6.29103 25.1082C8.96131 27.204 11.4603 28.4565 11.565 28.5008C11.7912 28.6116 12.0314 28.6676 12.2789 28.6676H12.2794C12.5275 28.6676 12.7677 28.6111 12.9939 28.4996C13.0992 28.4554 15.6009 27.1989 18.2701 25.1037C19.8838 23.8416 21.2192 22.5588 22.208 21.3175C23.1554 20.1265 23.796 18.958 24.1056 17.8101C24.0933 17.8084 24.5412 16.0122 24.4791 11.8962C24.4001 7.78072 23.8268 4.74537 23.8346 4.74257C23.5961 4.27727 23.1778 3.88812 22.666 3.68935C19.3065 2.38752 16.0029 1.14393 12.7822 0.082309C12.6171 0.0279963 12.448 0.000559926 12.2789 0.000559926L12.2783 0Z"/>
</mask>
<path d="M12.2783 2.15683C15.5651 3.24533 18.9386 4.527 21.8234 5.64573C22.0238 6.95875 22.2987 9.21077 22.3514 11.9331C22.3978 15.034 22.1414 16.7446 22.0277 17.3409C21.7898 18.1623 21.2903 19.0548 20.5434 19.9933C19.6576 21.1053 18.4515 22.2615 16.9587 23.429C16.9576 23.4295 16.9565 23.4306 16.9559 23.4312C14.8344 25.0964 12.8702 26.1698 12.2783 26.4789C11.6865 26.1704 9.72449 25.0992 7.60405 23.4351L7.60125 23.4329C6.10905 22.266 4.90353 21.1103 4.01941 19.9989C3.30998 19.1069 2.82397 18.2558 2.57312 17.4691C2.5664 17.4428 2.55912 17.4165 2.55073 17.3896C2.43874 17.0105 2.07871 15.4836 2.13302 11.7254C2.19237 9.33116 2.41186 7.19224 2.75454 5.63117C5.63032 4.51748 8.99379 3.24141 12.2783 2.15627M12.2783 0C12.1098 0 11.9407 0.0268764 11.7766 0.0811892C8.55649 1.13945 5.25349 2.3808 1.89449 3.68207C1.44263 3.85733 1.06356 4.18152 0.817197 4.57571C0.836235 4.57795 0.126809 6.79245 0.00586539 11.6834C-0.065805 16.5749 0.543394 18.0402 0.523237 18.0419C0.853033 19.117 1.47007 20.2105 2.35419 21.3225C3.34246 22.5644 4.67788 23.8472 6.29103 25.1082C8.96131 27.204 11.4603 28.4565 11.565 28.5008C11.7912 28.6116 12.0314 28.6676 12.2789 28.6676H12.2794C12.5275 28.6676 12.7677 28.6111 12.9939 28.4996C13.0992 28.4554 15.6009 27.1989 18.2701 25.1037C19.8838 23.8416 21.2192 22.5588 22.208 21.3175C23.1554 20.1265 23.796 18.958 24.1056 17.8101C24.0933 17.8084 24.5412 16.0122 24.4791 11.8962C24.4001 7.78072 23.8268 4.74537 23.8346 4.74257C23.5961 4.27727 23.1778 3.88812 22.666 3.68935C19.3065 2.38752 16.0029 1.14393 12.7822 0.082309C12.6171 0.0279963 12.448 0.000559926 12.2789 0.000559926L12.2783 0Z" fill="white"/>
<path d="M21.8234 5.64573L22.8119 5.49481L22.7246 4.92266L22.1849 4.71338L21.8234 5.64573ZM22.3514 11.9331L23.3513 11.9181L23.3512 11.9138L22.3514 11.9331ZM22.0277 17.3409L22.9882 17.6192L23.0013 17.5742L23.01 17.5281L22.0277 17.3409ZM20.5434 19.9933L21.3255 20.6163L21.3258 20.616L20.5434 19.9933ZM16.9587 23.429L17.4059 24.3234L17.4957 24.2785L17.5748 24.2167L16.9587 23.429ZM16.9559 23.4312L17.5734 24.2178L17.6206 24.1808L17.663 24.1383L16.9559 23.4312ZM12.2783 26.4789L11.8161 27.3656L12.2787 27.6068L12.7412 27.3653L12.2783 26.4789ZM7.60405 23.4351L6.97927 24.216L6.98668 24.2218L7.60405 23.4351ZM7.60125 23.4329L8.22604 22.652L8.21726 22.6451L7.60125 23.4329ZM4.01941 19.9989L3.23677 20.6213L3.23681 20.6214L4.01941 19.9989ZM2.57312 17.4691L1.60421 17.7165L1.61147 17.7449L1.62038 17.7729L2.57312 17.4691ZM2.55073 17.3896L1.5917 17.6729L1.59391 17.6804L1.59625 17.6879L2.55073 17.3896ZM2.13302 11.7254L1.13328 11.7006L1.13313 11.7109L2.13302 11.7254ZM2.75454 5.63117L2.39341 4.69865L1.89288 4.89249L1.77779 5.41676L2.75454 5.63117ZM12.2783 0L12.9862 -0.706372L12.6931 -1H12.2783V0ZM11.7766 0.0811892L12.0888 1.0312L12.0909 1.03052L11.7766 0.0811892ZM1.89449 3.68207L1.53326 2.7496L1.53288 2.74974L1.89449 3.68207ZM0.817197 4.57571L-0.030801 4.04571L-0.867487 5.38441L0.700356 5.56886L0.817197 4.57571ZM0.00586539 11.6834L-0.99388 11.6587L-0.994027 11.6688L0.00586539 11.6834ZM0.523237 18.0419L0.440191 17.0454L-0.796847 17.1485L-0.43279 18.3352L0.523237 18.0419ZM2.35419 21.3225L1.57144 21.9449L1.57171 21.9452L2.35419 21.3225ZM6.29103 25.1082L6.90843 24.3215L6.90688 24.3203L6.29103 25.1082ZM11.565 28.5008L12.0051 27.6028L11.9799 27.5905L11.9541 27.5796L11.565 28.5008ZM12.9939 28.4996L12.6065 27.5777L12.5789 27.5893L12.552 27.6026L12.9939 28.4996ZM18.2701 25.1037L17.654 24.316L17.6526 24.3171L18.2701 25.1037ZM22.208 21.3175L22.9902 21.9405L22.9906 21.94L22.208 21.3175ZM24.1056 17.8101L25.0711 18.0706L25.3672 16.9729L24.2407 16.8193L24.1056 17.8101ZM24.4791 11.8962L25.479 11.8811L25.4789 11.877L24.4791 11.8962ZM23.8346 4.74257L24.1709 5.68431L25.2446 5.30088L24.7245 4.28638L23.8346 4.74257ZM22.666 3.68935L23.0281 2.75719L23.0274 2.75691L22.666 3.68935ZM12.7822 0.082309L13.0953 -0.867426L13.0946 -0.867655L12.7822 0.082309ZM12.2789 0.000559926L11.571 0.706932L11.864 1.00056H12.2789V0.000559926ZM11.9639 3.10613C15.2256 4.18631 18.5797 5.46035 21.4618 6.57807L22.1849 4.71338C19.2976 3.59364 15.9046 2.30435 12.5927 1.20754L11.9639 3.10613ZM20.8348 5.79664C21.0304 7.07781 21.3 9.2846 21.3516 11.9525L23.3512 11.9138C23.2975 9.13694 23.0172 6.83969 22.8119 5.49481L20.8348 5.79664ZM21.3515 11.9481C21.397 14.9885 21.1451 16.6309 21.0454 17.1537L23.01 17.5281C23.1377 16.8583 23.3986 15.0795 23.3513 11.9181L21.3515 11.9481ZM21.0672 17.0626C20.877 17.7191 20.457 18.4961 19.761 19.3705L21.3258 20.616C22.1237 19.6136 22.7025 18.6055 22.9882 17.6192L21.0672 17.0626ZM19.7612 19.3702C18.9371 20.4047 17.7927 21.5072 16.3427 22.6412L17.5748 24.2167C19.1102 23.0158 20.378 21.8058 21.3255 20.6163L19.7612 19.3702ZM16.5115 22.5345C16.4055 22.5875 16.3337 22.6474 16.3068 22.6704C16.2739 22.6986 16.2492 22.7237 16.2488 22.7241L17.663 24.1383C17.663 24.1383 17.663 24.1383 17.6629 24.1384C17.6629 24.1385 17.6628 24.1385 17.6627 24.1387C17.6625 24.1389 17.6621 24.1392 17.6618 24.1396C17.661 24.1403 17.6599 24.1415 17.6585 24.1428C17.6558 24.1455 17.6519 24.1493 17.6473 24.1537C17.6382 24.1623 17.6246 24.175 17.6074 24.1897C17.5906 24.2041 17.5666 24.2238 17.5363 24.2452C17.5069 24.2661 17.4628 24.2949 17.4059 24.3234L16.5115 22.5345ZM16.3385 22.6446C14.2824 24.2584 12.3763 25.2996 11.8154 25.5925L12.7412 27.3653C13.364 27.04 15.3863 25.9344 17.5734 24.2178L16.3385 22.6446ZM12.7406 25.5921C12.1801 25.2999 10.2763 24.2611 8.22143 22.6484L6.98668 24.2218C9.17268 25.9373 11.1929 27.0408 11.8161 27.3656L12.7406 25.5921ZM8.22881 22.6543L8.22601 22.6521L6.9765 24.2137L6.9793 24.2159L8.22881 22.6543ZM8.21726 22.6451C6.7677 21.5116 5.62414 20.4099 4.80201 19.3763L3.23681 20.6214C4.18292 21.8108 5.4504 23.0204 6.98525 24.2206L8.21726 22.6451ZM4.80205 19.3764C4.14185 18.5463 3.72884 17.8019 3.52586 17.1653L1.62038 17.7729C1.9191 18.7097 2.47812 19.6675 3.23677 20.6213L4.80205 19.3764ZM3.54204 17.2217C3.53202 17.1825 3.52001 17.1387 3.50521 17.0913L1.59625 17.6879C1.59824 17.6943 1.60079 17.7031 1.60421 17.7165L3.54204 17.2217ZM3.50975 17.1063C3.43623 16.8574 3.07945 15.4396 3.13292 11.7398L1.13313 11.7109C1.07797 15.5276 1.44125 17.1636 1.5917 17.6729L3.50975 17.1063ZM3.13271 11.7502C3.19116 9.39235 3.40712 7.3223 3.73128 5.84558L1.77779 5.41676C1.41661 7.06218 1.19358 9.26996 1.13333 11.7006L3.13271 11.7502ZM3.11567 6.56368C5.98883 5.45101 9.33273 4.18259 12.592 3.10579L11.9646 1.20675C8.65484 2.30023 5.2718 3.58395 2.39341 4.69865L3.11567 6.56368ZM12.2783 -1C12.0031 -1 11.7279 -0.956068 11.4623 -0.86814L12.0909 1.03052C12.1534 1.00982 12.2164 1 12.2783 1V-1ZM11.4644 -0.868824C8.21885 0.197789 4.8963 1.44676 1.53326 2.7496L2.25573 4.61454C5.61067 3.31485 8.89412 2.08111 12.0888 1.0312L11.4644 -0.868824ZM1.53288 2.74974C0.872767 3.00577 0.325996 3.47484 -0.030801 4.04571L1.6652 5.10571C1.80113 4.88821 2.0125 4.70888 2.2561 4.6144L1.53288 2.74974ZM0.700356 5.56886C0.347692 5.52737 0.113689 5.31821 -0.00784658 5.14063C-0.112988 4.987 -0.148308 4.8428 -0.161141 4.78169C-0.187889 4.65433 -0.182356 4.5519 -0.181306 4.52985C-0.17813 4.46319 -0.168525 4.41214 -0.167498 4.40639C-0.162831 4.38029 -0.158389 4.36272 -0.1602 4.37032C-0.162252 4.37893 -0.16637 4.39513 -0.176621 4.4356C-0.195153 4.50876 -0.22371 4.62222 -0.258848 4.77425C-0.329123 5.0783 -0.424123 5.5296 -0.522929 6.13529C-0.720495 7.34636 -0.932246 9.16827 -0.993829 11.6587L1.00556 11.7081C1.06492 9.30758 1.26835 7.57677 1.45098 6.4573C1.54227 5.8977 1.62861 5.48928 1.68978 5.22464C1.72036 5.09232 1.74505 4.99419 1.76214 4.92671C1.76971 4.89686 1.779 4.86048 1.7853 4.83402C1.78767 4.82408 1.79503 4.79335 1.80127 4.75844C1.80309 4.74829 1.81315 4.69392 1.81643 4.62502C1.81753 4.60186 1.82303 4.49858 1.79616 4.37064C1.78327 4.30925 1.74787 4.16482 1.64262 4.01105C1.52098 3.83331 1.28685 3.62407 0.934039 3.58256L0.700356 5.56886ZM-0.994027 11.6688C-1.03048 14.1564 -0.894257 15.7992 -0.744558 16.8389C-0.669578 17.3596 -0.591257 17.7287 -0.529695 17.9766C-0.49881 18.1009 -0.472972 18.1914 -0.455788 18.2501C-0.452038 18.2629 -0.447874 18.2769 -0.445932 18.2835C-0.443139 18.293 -0.442949 18.2938 -0.443587 18.2915C-0.443991 18.2901 -0.44565 18.2841 -0.447824 18.2754C-0.44955 18.2685 -0.45445 18.2488 -0.459416 18.2224C-0.461271 18.2126 -0.47793 18.1302 -0.476132 18.0239C-0.475422 17.9819 -0.472316 17.8297 -0.397819 17.653C-0.307393 17.4386 -0.0512079 17.0863 0.440191 17.0454L0.606282 19.0385C1.098 18.9975 1.35442 18.645 1.44501 18.4302C1.51967 18.2532 1.52286 18.1004 1.52358 18.0577C1.52541 17.9498 1.50848 17.8652 1.50606 17.8524C1.49683 17.8034 1.48515 17.7623 1.48351 17.7564C1.47766 17.7354 1.46724 17.7004 1.4635 17.6876C1.4515 17.6467 1.43361 17.5842 1.41134 17.4945C1.36659 17.3143 1.30087 17.0111 1.23503 16.5538C1.10308 15.6375 0.970536 14.1019 1.00576 11.6981L-0.994027 11.6688ZM-0.43279 18.3352C-0.056843 19.5607 0.632509 20.7639 1.57144 21.9449L3.13694 20.7002C2.30763 19.6571 1.76291 18.6733 1.47926 17.7486L-0.43279 18.3352ZM1.57171 21.9452C2.62086 23.2636 4.01751 24.6003 5.67518 25.896L6.90688 24.3203C5.33826 23.0942 4.06407 21.8653 3.13668 20.6998L1.57171 21.9452ZM5.67362 25.8948C8.4071 28.0402 10.982 29.3401 11.1758 29.4219L11.9541 27.5796C11.9692 27.586 11.3677 27.2919 10.4031 26.7154C9.4578 26.1505 8.2023 25.337 6.90843 24.3215L5.67362 25.8948ZM11.1249 29.3987C11.4861 29.5757 11.8766 29.6676 12.2789 29.6676V27.6676C12.1861 27.6676 12.0963 27.6475 12.0051 27.6028L11.1249 29.3987ZM12.2789 29.6676H12.2794V27.6676H12.2789V29.6676ZM12.2794 29.6676C12.6836 29.6676 13.0747 29.5745 13.4358 29.3967L12.552 27.6026C12.4606 27.6476 12.3713 27.6676 12.2794 27.6676V29.6676ZM13.3813 29.4216C13.5779 29.3389 16.1561 28.0344 18.8875 25.8903L17.6526 24.3171C16.3592 25.3324 15.1032 26.1467 14.1572 26.7126C13.1907 27.2907 12.5899 27.5847 12.6065 27.5777L13.3813 29.4216ZM18.8861 25.8914C20.5442 24.5946 21.9407 23.2581 22.9902 21.9405L21.4258 20.6944C20.4977 21.8596 19.2233 23.0886 17.654 24.316L18.8861 25.8914ZM22.9906 21.94C23.9962 20.6759 24.7161 19.3864 25.0711 18.0706L23.1401 17.5497C22.8758 18.5295 22.3146 19.5772 21.4254 20.6949L22.9906 21.94ZM24.2407 16.8193C24.6747 16.8785 24.8982 17.1779 24.9794 17.3239C25.0584 17.466 25.0826 17.5924 25.0906 17.638C25.1085 17.741 25.1054 17.8232 25.1049 17.8403C25.1032 17.8934 25.0973 17.9344 25.0967 17.939C25.0939 17.9598 25.0912 17.9739 25.0924 17.9674C25.0939 17.959 25.0963 17.9464 25.1029 17.912C25.1146 17.8506 25.1323 17.7566 25.1536 17.6305C25.1961 17.3784 25.2518 17.005 25.3054 16.502C25.4125 15.4963 25.5106 13.9777 25.479 11.8811L23.4792 11.9113C23.5097 13.9306 23.4149 15.3682 23.3167 16.2901C23.2676 16.7508 23.2175 17.084 23.1814 17.2978C23.1634 17.4047 23.1486 17.4834 23.1384 17.5367C23.1341 17.5596 23.1282 17.5897 23.1246 17.6099C23.1232 17.6176 23.1186 17.6424 23.1148 17.6704C23.1137 17.6785 23.1076 17.7222 23.1059 17.7772C23.1053 17.7952 23.1022 17.878 23.1203 17.9815C23.1282 18.0273 23.1525 18.1539 23.2316 18.2961C23.3129 18.4422 23.5365 18.7418 23.9705 18.8009L24.2407 16.8193ZM25.4789 11.877C25.4386 9.77875 25.2724 7.95701 25.1172 6.65845C25.0396 6.00865 24.9645 5.48897 24.9092 5.13029C24.8815 4.95089 24.8588 4.81224 24.8434 4.71898C24.8355 4.67063 24.8303 4.63963 24.8268 4.61828C24.825 4.6068 24.8248 4.60554 24.8253 4.60905C24.8255 4.61047 24.826 4.61368 24.8266 4.61808C24.827 4.62183 24.8282 4.63048 24.8293 4.64184C24.8299 4.64741 24.8333 4.67895 24.8343 4.71969C24.8346 4.73383 24.8361 4.79258 24.8268 4.86703C24.8203 4.91061 24.7933 5.02696 24.7691 5.09841C24.7076 5.23034 24.4231 5.55103 24.1709 5.68431L23.4983 3.80083C23.246 3.93412 22.9616 4.25484 22.9 4.38683C22.8758 4.45833 22.8487 4.57476 22.8423 4.61845C22.8329 4.6931 22.8345 4.75216 22.8348 4.76669C22.8358 4.8082 22.8393 4.8409 22.84 4.84799C22.8423 4.87024 22.845 4.88874 22.8458 4.89426C22.848 4.90967 22.8506 4.92612 22.8525 4.93802C22.8567 4.96346 22.8631 5.00198 22.8702 5.04493C22.8849 5.13428 22.9064 5.26538 22.9326 5.43524C22.985 5.77509 23.0568 6.27198 23.1314 6.89581C23.2806 8.14448 23.4406 9.89814 23.4793 11.9154L25.4789 11.877ZM24.7245 4.28638C24.3768 3.6082 23.7734 3.04667 23.0281 2.75719L22.304 4.62151C22.5822 4.72957 22.8153 4.94634 22.9447 5.19875L24.7245 4.28638ZM23.0274 2.75691C19.6641 1.45363 16.3411 0.202482 13.0953 -0.867426L12.4692 1.03204C15.6647 2.08537 18.9489 3.32142 22.3047 4.62179L23.0274 2.75691ZM13.0946 -0.867655C12.8314 -0.954213 12.5569 -0.99944 12.2789 -0.99944V1.00056C12.339 1.00056 12.4028 1.01021 12.4699 1.03227L13.0946 -0.867655ZM12.9867 -0.705812L12.9862 -0.706372L11.5705 0.706372L11.571 0.706932L12.9867 -0.705812Z" fill="white" mask="url(#path-1-inside-1_1_169)"/>
<path d="M10.2796 15.2749C9.46676 14.6663 8.98042 13.7135 8.97986 12.6683L12.2421 9.40509C13.1146 9.40513 13.9325 9.74387 14.5492 10.3606C15.1661 10.9775 15.5053 11.7955 15.5053 12.6678C15.5053 13.6796 15.0407 14.6176 14.2636 15.2297L14.073 15.3799V15.6225V17.4686C14.073 17.9499 13.8869 18.3993 13.5472 18.7386L13.5469 18.7388C13.2173 19.0685 12.7846 19.2535 12.3202 19.2648H12.2767C11.7954 19.2648 11.346 19.0788 11.0067 18.739L11.0065 18.7388C10.6662 18.3985 10.4799 17.9489 10.4799 17.4686V15.6751V15.4249L10.2796 15.2749ZM14.377 12.6673C14.3769 12.098 14.1539 11.5608 13.7521 11.1583L13.7515 11.1577C13.5918 10.9983 13.4109 10.867 13.2152 10.7667L13.4497 10.5322H12.2426C11.0649 10.5322 10.1076 11.4896 10.1076 12.6672C10.1076 13.4823 10.5637 14.2172 11.2944 14.5803L11.2944 14.5803C11.486 14.6755 11.6071 14.871 11.6071 15.085V17.468C11.6071 17.8371 11.9071 18.1371 12.2762 18.1371C12.5036 18.1371 12.6629 18.0275 12.749 17.9414C12.8351 17.8553 12.9447 17.6961 12.9447 17.4686V15.0514C12.9447 14.843 13.0596 14.6517 13.2435 14.5538L13.2437 14.5536C13.9417 14.1816 14.3777 13.4591 14.377 12.6673ZM8.97986 12.6681C8.97998 10.8698 10.4437 9.40565 12.242 9.40509L8.97986 12.6681Z" fill="white" stroke="white"/>
</svg>
