<svg width="29" height="28" viewBox="0 0 29 28" fill="none" xmlns="http://www.w3.org/2000/svg">
<path d="M7.105 27.4963L6.99062 27.496C6.72214 27.4951 6.45698 27.4353 6.21354 27.3207C5.9701 27.2062 5.75411 27.0394 5.58076 26.8319C5.40739 26.6244 5.28086 26.3812 5.21017 26.119C5.13948 25.8569 5.12638 25.5824 5.17179 25.3146C5.17179 25.3145 5.1718 25.3145 5.1718 25.3145L6.36699 18.2995L6.36752 18.2964C6.38957 18.1618 6.37871 18.0238 6.33581 17.8942C6.29318 17.7655 6.22012 17.6488 6.12259 17.5542C6.12195 17.5535 6.12131 17.5529 6.12067 17.5523L1.05882 12.5875L7.105 27.4963ZM7.105 27.4963C7.3637 27.4799 7.61657 27.4083 7.84671 27.2857L7.84796 27.2851L14.1053 23.9747C14.1059 23.9744 14.1066 23.974 14.1072 23.9737C14.2279 23.9091 14.3628 23.8752 14.4999 23.8752C14.637 23.8752 14.7719 23.9091 14.8926 23.9737C14.8933 23.974 14.8939 23.9743 14.8945 23.9747L21.1509 27.2851L21.1511 27.2852C21.4562 27.4468 21.7998 27.5191 22.1433 27.4942C22.4867 27.4693 22.8166 27.3481 23.0957 27.144C23.3749 26.9399 23.5921 26.6609 23.7224 26.3383C23.8527 26.0156 23.8908 25.6625 23.8322 25.3191L23.8321 25.3189L22.6369 18.3036L22.6366 18.302C22.614 18.1669 22.6247 18.0283 22.6678 17.8982L23.1425 18.0554L22.6678 17.8982C22.7105 17.7693 22.7837 17.6525 22.8816 17.5579L27.94 12.5885L27.9403 12.5882C28.1878 12.3455 28.3632 12.0375 28.4461 11.699C28.529 11.3604 28.5161 11.0052 28.4087 10.6738L28.8833 10.5201L28.4087 10.6738C28.3014 10.3423 28.1042 10.0482 27.8398 9.82452C27.5754 9.60083 27.2545 9.45642 26.9133 9.40724L26.9124 9.4071L19.9187 8.38498L19.9186 8.38496C19.7832 8.36514 19.655 8.31245 19.5448 8.23172C19.4349 8.1511 19.3464 8.04499 19.2867 7.92278C19.2866 7.92264 19.2865 7.92249 19.2865 7.92235L16.1601 1.53866L16.1601 1.53851C16.0073 1.22623 15.7709 0.96372 15.4781 0.780355C15.1853 0.59701 14.8477 0.5 14.5034 0.5C14.1592 0.5 13.8216 0.59701 13.5288 0.780355C13.236 0.96372 12.9996 1.22623 12.8468 1.53851L12.8467 1.53883L9.71794 7.92126L9.71738 7.92241C9.65749 8.04378 9.56923 8.14916 9.4598 8.22939C9.35036 8.30962 9.22305 8.36226 9.08863 8.3826L9.08618 8.38296L2.08647 9.40609L2.08595 9.40616C1.74495 9.45564 1.42416 9.60022 1.15996 9.82396C0.895729 10.0477 0.698599 10.3418 0.591314 10.6732C0.484022 11.0045 0.470993 11.3596 0.553741 11.6982C0.636454 12.0365 0.811462 12.3444 1.05854 12.5873L7.105 27.4963ZM13.6409 23.0675L13.6422 23.0668C13.9066 22.926 14.201 22.8525 14.4998 22.8526H14.4999C14.7989 22.8526 15.0936 22.9259 15.3585 23.0663L15.3588 23.0665L21.6148 26.3772C21.6153 26.3774 21.6158 26.3777 21.6163 26.378C21.7549 26.4519 21.9115 26.4855 22.0684 26.4747C22.2259 26.4639 22.3769 26.4087 22.5042 26.316C22.6315 26.2233 22.73 26.0967 22.7889 25.9511C22.8477 25.8056 22.8647 25.6465 22.8381 25.4919L22.8382 25.4926L22.3453 25.5766L22.8381 25.4918L13.6409 23.0675ZM13.6409 23.0675L7.38751 26.3753M13.6409 23.0675L7.38751 26.3753M7.38751 26.3753C7.24826 26.453 7.08927 26.4886 6.92982 26.4773C6.77163 26.4661 6.62039 26.4093 6.49408 26.3143C6.36662 26.223 6.26789 26.0973 6.20909 25.9522L6.67249 25.7644L6.20909 25.9522C6.14944 25.805 6.13331 25.6438 6.16244 25.4878L7.35777 18.4769C7.35777 18.4769 7.35777 18.4768 7.35778 18.4768C7.40827 18.1784 7.3861 17.8721 7.29324 17.5843C7.20038 17.2966 7.03968 17.0361 6.82521 16.825C6.82518 16.825 6.82516 16.825 6.82514 16.825L1.76043 11.8564L1.75959 11.8556C1.64799 11.7456 1.5695 11.6067 1.53254 11.4549C1.49559 11.303 1.50153 11.1438 1.54975 10.9951C1.59797 10.8464 1.68668 10.7137 1.8063 10.6124L2.1295 10.9939L1.8063 10.6124C1.92595 10.511 2.07172 10.4451 2.22723 10.4224M7.38751 26.3753L2.22723 10.4224M2.22723 10.4224L2.22701 10.4224L2.29941 10.9172L2.22723 10.4224ZM2.22723 10.4224L9.22571 9.39829L9.22599 9.39825M2.22723 10.4224L9.22599 9.39825M9.22599 9.39825C9.52192 9.35512 9.80322 9.24009 10.0456 9.06283C10.2879 8.88556 10.484 8.65133 10.6168 8.38015L10.617 8.37967M9.22599 9.39825L10.617 8.37967M10.617 8.37967L13.7497 1.99623L13.7498 1.99611M10.617 8.37967L13.7498 1.99611M13.7498 1.99611C13.8188 1.85565 13.9256 1.73693 14.0587 1.65372C14.1918 1.5705 14.3457 1.52623 14.5029 1.52623C14.6602 1.52623 14.814 1.5705 14.9471 1.65372L14.684 2.07459M13.7498 1.99611L14.684 2.07459M14.684 2.07459L14.9472 1.65372C15.0802 1.73693 15.1871 1.85564 15.2561 1.9961L15.2563 1.99652M14.684 2.07459L15.2563 1.99652M15.2563 1.99652L18.383 8.37794L18.3831 8.3781M15.2563 1.99652L18.3831 8.3781M18.3831 8.3781C18.5159 8.64938 18.7121 8.88367 18.9546 9.06095C19.1971 9.23821 19.4786 9.35318 19.7746 9.3962L19.7753 9.39629M18.3831 8.3781L19.7753 9.39629M19.7753 9.39629L26.7709 10.4222C26.7713 10.4222 26.7717 10.4223 26.7721 10.4223C26.9278 10.4447 27.0738 10.5105 27.1936 10.6118L26.8708 10.9936M19.7753 9.39629L26.8708 10.9936M26.8708 10.9936L27.1936 10.6118C27.3137 10.7134 27.4027 10.8465 27.4508 10.9958M26.8708 10.9936L27.4508 10.9958M27.4508 10.9958C27.499 11.1451 27.5045 11.3049 27.4668 11.4571M27.4508 10.9958L27.4668 11.4571M27.4668 11.4571C27.4292 11.6089 27.3501 11.7474 27.2379 11.8569M27.4668 11.4571L27.2379 11.8569M27.2379 11.8569C27.2376 11.8572 27.2372 11.8576 27.2369 11.8579L27.2379 11.8569ZM21.6421 18.4769L21.1491 18.5603L21.642 18.4763L21.6421 18.4768C21.6421 18.4768 21.6421 18.4769 21.6421 18.4769ZM22.1747 16.825L22.1742 16.8254L21.824 16.4686L22.1747 16.825Z" fill="white" stroke="white"/>
</svg>
