<svg width="41" height="40" viewBox="0 0 41 40" fill="none" xmlns="http://www.w3.org/2000/svg">
<path d="M40.6517 15.1508C40.3243 14.1464 39.4557 13.4162 38.4091 13.2637L27.8076 11.7232L23.0703 2.15126C22.1323 0.258662 19.0322 0.258662 18.0942 2.15126L13.357 11.7232L2.78057 13.2637C1.73698 13.4162 0.868385 14.1489 0.54096 15.1538C0.213534 16.1556 0.485609 17.2576 1.24307 17.9954L8.91395 25.4721L7.10438 36.0209C6.92683 37.0615 7.35431 38.1191 8.20886 38.7378C9.06382 39.3564 10.2015 39.4374 11.134 38.946L20.5812 33.9644L30.0561 38.946C30.4615 39.1597 30.9055 39.2653 31.3467 39.2653C31.921 39.2653 32.4954 39.0848 32.9812 38.7382C33.8362 38.1136 34.2633 37.0619 34.0857 36.0213L32.2791 25.4726L39.95 17.9959C40.7075 17.2601 40.9791 16.1556 40.6517 15.1508Z" fill="url(#paint0_linear_1_584)"/>
<defs>
<linearGradient id="paint0_linear_1_584" x1="20.5964" y1="0.731812" x2="20.5964" y2="39.2653" gradientUnits="userSpaceOnUse">
<stop stop-color="#F53529"/>
<stop offset="1" stop-color="#CE0000"/>
</linearGradient>
</defs>
</svg>
