<?xml version="1.0" standalone="no"?>
<!DOCTYPE svg PUBLIC "-//W3C//DTD SVG 20010904//EN"
 "http://www.w3.org/TR/2001/REC-SVG-20010904/DTD/svg10.dtd">
<svg version="1.0" xmlns="http://www.w3.org/2000/svg"
 width="1280.000000pt" height="1226.000000pt" viewBox="0 0 1280.000000 1226.000000"
 preserveAspectRatio="xMidYMid meet">
<metadata>
Created by potrace 1.15, written by Peter Selinger 2001-2017
</metadata>
<g transform="translate(0.000000,1226.000000) scale(0.100000,-0.100000)"
fill="#ffffff" stroke="none">
<path d="M5748 11533 c-190 -401 -599 -1261 -908 -1913 -310 -652 -564 -1187
-566 -1189 -1 -2 -963 -158 -2136 -347 -1173 -188 -2134 -343 -2135 -343 -2
-1 -3 -110 -3 -244 l0 -243 1491 -1409 c820 -776 1501 -1419 1514 -1430 l24
-20 -54 -345 c-30 -190 -91 -579 -135 -865 -44 -286 -101 -646 -125 -800 -24
-154 -76 -485 -115 -735 -39 -250 -112 -723 -163 -1050 l-93 -595 269 -3 270
-2 1756 956 c966 527 1776 968 1801 982 l45 24 1938 -981 1938 -981 172 2 173
3 -418 2225 c-229 1224 -416 2237 -415 2251 1 20 344 369 1465 1495 l1462
1469 -2 245 -3 244 -170 23 c-93 12 -676 88 -1295 168 -619 80 -1507 195
-1975 256 -467 61 -853 113 -857 117 -3 4 -211 405 -460 892 -250 487 -683
1332 -963 1878 l-510 992 -236 0 -236 0 -345 -727z m1432 -2133 c452 -883 823
-1606 824 -1607 1 -1 317 -43 702 -93 384 -50 1113 -145 1619 -211 506 -65
1000 -129 1098 -141 97 -12 176 -25 175 -29 -2 -4 -576 -583 -1275 -1287 -700
-704 -1273 -1287 -1273 -1297 0 -9 126 -690 280 -1513 155 -823 303 -1618 331
-1766 28 -147 49 -269 47 -271 -2 -2 -731 366 -1620 816 l-1617 819 -1593
-869 c-876 -477 -1594 -868 -1595 -867 -1 1 11 85 27 186 16 102 84 534 150
960 66 426 179 1149 251 1606 l129 831 -72 71 c-40 38 -631 597 -1313 1241
-682 645 -1241 1175 -1243 1180 -1 4 102 25 230 45 128 21 510 82 848 136 338
55 896 144 1240 200 344 55 767 123 942 151 l316 51 543 1142 c298 627 648
1365 778 1638 130 274 239 494 242 490 3 -4 376 -729 829 -1612z"/>
</g>
</svg>
